<svg xmlns="http://www.w3.org/2000/svg" xmlns:xlink="http://www.w3.org/1999/xlink" width="500" zoomAndPan="magnify" viewBox="0 0 375 374.999991" height="500" preserveAspectRatio="xMidYMid meet" version="1.0"><defs><g/><clipPath id="bed82cb35c"><path d="M 118.40625 91.335938 L 218 91.335938 L 218 241.335938 L 118.40625 241.335938 Z M 118.40625 91.335938 " clip-rule="nonzero"/></clipPath><clipPath id="b68d6824b9"><path d="M 192 95 L 256.40625 95 L 256.40625 241.335938 L 192 241.335938 Z M 192 95 " clip-rule="nonzero"/></clipPath></defs><g clip-path="url(#bed82cb35c)"><path fill="#000000" d="M 208.957031 181.949219 L 149.703125 241.324219 L 118.507812 241.324219 L 193.347656 166.332031 C 196.488281 163.1875 196.480469 158.03125 193.339844 154.886719 C 190.199219 151.742188 185.070312 151.742188 181.925781 154.886719 L 118.425781 218.433594 L 118.425781 160.332031 C 118.425781 151.019531 120.289062 141.984375 123.886719 133.472656 C 127.355469 125.257812 132.363281 117.882812 138.6875 111.546875 C 145.011719 105.214844 152.375 100.242188 160.582031 96.769531 C 169.082031 93.164062 178.101562 91.335938 187.394531 91.335938 C 188.386719 91.335938 189.367188 91.359375 190.347656 91.398438 L 151.09375 130.695312 C 144.496094 138.78125 140.5 149.097656 140.5 160.332031 L 140.5 165.109375 L 166.339844 139.265625 C 172.027344 133.574219 179.621094 130.433594 187.664062 130.433594 C 195.710938 130.433594 203.269531 133.574219 208.960938 139.269531 C 214.648438 144.964844 217.78125 152.542969 217.78125 160.597656 C 217.78125 168.652344 214.648438 176.253906 208.957031 181.949219 Z M 208.957031 181.949219 " fill-opacity="1" fill-rule="nonzero"/></g><g clip-path="url(#b68d6824b9)"><path fill="#000000" d="M 236.144531 210.078125 L 228.566406 217.667969 L 252.152344 241.324219 L 220.957031 241.324219 L 197.386719 217.652344 L 220.5625 194.441406 C 229.40625 185.582031 234.3125 173.804688 234.3125 161.273438 L 234.3125 160.332031 C 234.3125 136.003906 215.695312 115.945312 192 113.648438 L 210.335938 95.253906 C 211.648438 95.71875 212.953125 96.222656 214.238281 96.769531 C 222.445312 100.246094 229.824219 105.21875 236.144531 111.546875 C 242.46875 117.882812 247.457031 125.257812 250.925781 133.472656 C 254.523438 141.984375 256.386719 151.019531 256.386719 160.332031 L 256.386719 161.273438 C 256.386719 170.378906 254.582031 179.265625 251.101562 187.679688 C 247.621094 196.09375 242.574219 203.636719 236.144531 210.078125 Z M 236.144531 210.078125 " fill-opacity="1" fill-rule="nonzero"/></g><g fill="#000000" fill-opacity="1"><g transform="translate(68.484374, 302.38709)"><g><path d="M 12.65625 0.40625 C 10.675781 0.40625 8.914062 0.160156 7.375 -0.328125 C 5.832031 -0.816406 4.546875 -1.457031 3.515625 -2.25 C 2.484375 -3.039062 1.695312 -3.910156 1.15625 -4.859375 L 4.265625 -8.65625 L 4.75 -8.65625 C 5.601562 -7.375 6.691406 -6.351562 8.015625 -5.59375 C 9.335938 -4.84375 10.882812 -4.46875 12.65625 -4.46875 C 14.164062 -4.46875 15.304688 -4.785156 16.078125 -5.421875 C 16.847656 -6.066406 17.234375 -6.945312 17.234375 -8.0625 C 17.234375 -8.738281 17.109375 -9.304688 16.859375 -9.765625 C 16.609375 -10.222656 16.195312 -10.613281 15.625 -10.9375 C 15.050781 -11.257812 14.273438 -11.539062 13.296875 -11.78125 L 9.625 -12.625 C 7.0625 -13.207031 5.148438 -14.175781 3.890625 -15.53125 C 2.640625 -16.894531 2.015625 -18.664062 2.015625 -20.84375 C 2.015625 -22.457031 2.414062 -23.875 3.21875 -25.09375 C 4.03125 -26.320312 5.207031 -27.273438 6.75 -27.953125 C 8.289062 -28.628906 10.132812 -28.96875 12.28125 -28.96875 C 14.488281 -28.96875 16.375 -28.675781 17.9375 -28.09375 C 19.507812 -27.519531 20.835938 -26.632812 21.921875 -25.4375 L 19.125 -21.609375 L 18.640625 -21.609375 C 17.828125 -22.453125 16.898438 -23.082031 15.859375 -23.5 C 14.816406 -23.925781 13.625 -24.140625 12.28125 -24.140625 C 10.738281 -24.140625 9.5625 -23.863281 8.75 -23.3125 C 7.945312 -22.769531 7.546875 -22.019531 7.546875 -21.0625 C 7.546875 -20.15625 7.828125 -19.4375 8.390625 -18.90625 C 8.953125 -18.375 9.929688 -17.957031 11.328125 -17.65625 L 15.078125 -16.875 C 17.847656 -16.289062 19.859375 -15.296875 21.109375 -13.890625 C 22.359375 -12.492188 22.984375 -10.671875 22.984375 -8.421875 C 22.984375 -6.640625 22.597656 -5.085938 21.828125 -3.765625 C 21.066406 -2.441406 19.910156 -1.414062 18.359375 -0.6875 C 16.804688 0.0390625 14.90625 0.40625 12.65625 0.40625 Z M 12.65625 0.40625 "/></g></g></g><g fill="#000000" fill-opacity="1"><g transform="translate(93.013227, 302.38709)"><g><path d="M 14.859375 -5.140625 L 16.265625 -1.140625 C 15.679688 -0.648438 14.945312 -0.269531 14.0625 0 C 13.175781 0.269531 12.175781 0.40625 11.0625 0.40625 C 8.726562 0.40625 6.953125 -0.226562 5.734375 -1.5 C 4.523438 -2.769531 3.921875 -4.613281 3.921875 -7.03125 L 3.921875 -17.265625 L 0.640625 -17.265625 L 0.640625 -21.5625 L 3.921875 -21.5625 L 3.921875 -25.765625 L 9.34375 -26.640625 L 9.34375 -21.5625 L 15.453125 -21.5625 L 15.453125 -17.265625 L 9.34375 -17.265625 L 9.34375 -7.421875 C 9.34375 -6.359375 9.5625 -5.582031 10 -5.09375 C 10.445312 -4.601562 11.09375 -4.359375 11.9375 -4.359375 C 12.894531 -4.359375 13.734375 -4.617188 14.453125 -5.140625 Z M 14.859375 -5.140625 "/></g></g></g><g fill="#000000" fill-opacity="1"><g transform="translate(109.749878, 302.38709)"><g><path d="M 9.859375 0.40625 C 7.441406 0.40625 5.65625 -0.253906 4.5 -1.578125 C 3.351562 -2.898438 2.78125 -4.796875 2.78125 -7.265625 L 2.78125 -21.546875 L 8.1875 -21.546875 L 8.1875 -7.953125 C 8.1875 -6.640625 8.46875 -5.675781 9.03125 -5.0625 C 9.601562 -4.457031 10.476562 -4.15625 11.65625 -4.15625 C 13.15625 -4.15625 14.320312 -4.644531 15.15625 -5.625 C 15.988281 -6.613281 16.40625 -8.164062 16.40625 -10.28125 L 16.40625 -21.546875 L 21.8125 -21.546875 L 21.8125 0 L 16.625 0 L 16.625 -3.171875 L 16.21875 -3.265625 C 15.519531 -2.023438 14.671875 -1.101562 13.671875 -0.5 C 12.679688 0.101562 11.410156 0.40625 9.859375 0.40625 Z M 9.859375 0.40625 "/></g></g></g><g fill="#000000" fill-opacity="1"><g transform="translate(134.669318, 302.38709)"><g><path d="M 10.640625 0.40625 C 8.941406 0.40625 7.4375 -0.00390625 6.125 -0.828125 C 4.8125 -1.660156 3.785156 -2.910156 3.046875 -4.578125 C 2.304688 -6.253906 1.9375 -8.316406 1.9375 -10.765625 C 1.9375 -13.222656 2.316406 -15.285156 3.078125 -16.953125 C 3.835938 -18.628906 4.890625 -19.878906 6.234375 -20.703125 C 7.585938 -21.535156 9.148438 -21.953125 10.921875 -21.953125 C 12.265625 -21.953125 13.425781 -21.71875 14.40625 -21.25 C 15.382812 -20.789062 16.210938 -20.078125 16.890625 -19.109375 L 17.3125 -19.203125 L 17.3125 -30.203125 L 22.71875 -30.203125 L 22.71875 0 L 17.3125 0 L 17.3125 -2.796875 L 16.890625 -2.875 C 16.296875 -1.851562 15.476562 -1.050781 14.4375 -0.46875 C 13.394531 0.113281 12.128906 0.40625 10.640625 0.40625 Z M 12.40625 -4.1875 C 13.925781 -4.1875 15.128906 -4.726562 16.015625 -5.8125 C 16.898438 -6.894531 17.34375 -8.546875 17.34375 -10.765625 C 17.34375 -12.972656 16.898438 -14.625 16.015625 -15.71875 C 15.128906 -16.8125 13.925781 -17.359375 12.40625 -17.359375 C 10.8125 -17.359375 9.59375 -16.828125 8.75 -15.765625 C 7.914062 -14.710938 7.5 -13.046875 7.5 -10.765625 C 7.5 -8.492188 7.914062 -6.828125 8.75 -5.765625 C 9.59375 -4.710938 10.8125 -4.1875 12.40625 -4.1875 Z M 12.40625 -4.1875 "/></g></g></g><g fill="#000000" fill-opacity="1"><g transform="translate(160.487107, 302.38709)"><g><path d="M 4.765625 9.140625 C 3.835938 9.140625 3 9.066406 2.25 8.921875 C 1.507812 8.785156 0.90625 8.597656 0.4375 8.359375 L 1.296875 3.984375 L 1.640625 3.875 C 1.960938 4.039062 2.363281 4.175781 2.84375 4.28125 C 3.332031 4.382812 3.832031 4.4375 4.34375 4.4375 C 5.207031 4.4375 5.929688 4.320312 6.515625 4.09375 C 7.097656 3.863281 7.585938 3.484375 7.984375 2.953125 C 8.390625 2.429688 8.75 1.703125 9.0625 0.765625 L 0.46875 -21.546875 L 6.140625 -21.546875 L 11.484375 -6.5625 L 11.953125 -6.5625 L 17.171875 -21.546875 L 22.671875 -21.546875 L 14.03125 1.34375 C 13.332031 3.195312 12.570312 4.6875 11.75 5.8125 C 10.925781 6.9375 9.945312 7.769531 8.8125 8.3125 C 7.6875 8.863281 6.335938 9.140625 4.765625 9.140625 Z M 4.765625 9.140625 "/></g></g></g><g fill="#000000" fill-opacity="1"><g transform="translate(183.609847, 302.38709)"><g/></g></g><g fill="#000000" fill-opacity="1"><g transform="translate(193.042524, 302.38709)"><g><path d="M 3.71875 0 L 3.71875 -28.5625 L 15.171875 -28.5625 C 18.128906 -28.5625 20.359375 -27.878906 21.859375 -26.515625 C 23.367188 -25.148438 24.125 -23.269531 24.125 -20.875 C 24.125 -19.144531 23.679688 -17.726562 22.796875 -16.625 C 21.921875 -15.519531 20.613281 -14.671875 18.875 -14.078125 L 18.875 -13.671875 C 19.769531 -13.285156 20.492188 -12.707031 21.046875 -11.9375 C 21.597656 -11.164062 22.125 -10.023438 22.625 -8.515625 L 25.46875 0 L 19.671875 0 L 16.875 -8.53125 C 16.59375 -9.394531 16.269531 -10.0625 15.90625 -10.53125 C 15.550781 -11.007812 15.097656 -11.351562 14.546875 -11.5625 C 13.992188 -11.78125 13.273438 -11.890625 12.390625 -11.890625 L 9.359375 -11.890625 L 9.359375 0 Z M 14.5 -16.375 C 17.226562 -16.375 18.59375 -17.648438 18.59375 -20.203125 C 18.59375 -22.785156 17.226562 -24.078125 14.5 -24.078125 L 9.359375 -24.078125 L 9.359375 -16.375 Z M 14.5 -16.375 "/></g></g></g><g fill="#000000" fill-opacity="1"><g transform="translate(219.172772, 302.38709)"><g><path d="M 12.515625 0.40625 C 10.410156 0.40625 8.5625 -0.0234375 6.96875 -0.890625 C 5.375 -1.753906 4.132812 -3.019531 3.25 -4.6875 C 2.375 -6.363281 1.9375 -8.390625 1.9375 -10.765625 C 1.9375 -13.128906 2.375 -15.148438 3.25 -16.828125 C 4.132812 -18.515625 5.375 -19.789062 6.96875 -20.65625 C 8.5625 -21.519531 10.410156 -21.953125 12.515625 -21.953125 C 14.628906 -21.953125 16.484375 -21.519531 18.078125 -20.65625 C 19.671875 -19.789062 20.910156 -18.515625 21.796875 -16.828125 C 22.679688 -15.148438 23.125 -13.128906 23.125 -10.765625 C 23.125 -8.390625 22.679688 -6.363281 21.796875 -4.6875 C 20.910156 -3.019531 19.671875 -1.753906 18.078125 -0.890625 C 16.484375 -0.0234375 14.628906 0.40625 12.515625 0.40625 Z M 12.515625 -4.1875 C 15.867188 -4.1875 17.546875 -6.378906 17.546875 -10.765625 C 17.546875 -13.046875 17.113281 -14.710938 16.25 -15.765625 C 15.394531 -16.828125 14.148438 -17.359375 12.515625 -17.359375 C 9.171875 -17.359375 7.5 -15.160156 7.5 -10.765625 C 7.5 -6.378906 9.171875 -4.1875 12.515625 -4.1875 Z M 12.515625 -4.1875 "/></g></g></g><g fill="#000000" fill-opacity="1"><g transform="translate(244.209387, 302.38709)"><g><path d="M 12.515625 0.40625 C 10.410156 0.40625 8.5625 -0.0234375 6.96875 -0.890625 C 5.375 -1.753906 4.132812 -3.019531 3.25 -4.6875 C 2.375 -6.363281 1.9375 -8.390625 1.9375 -10.765625 C 1.9375 -13.128906 2.375 -15.148438 3.25 -16.828125 C 4.132812 -18.515625 5.375 -19.789062 6.96875 -20.65625 C 8.5625 -21.519531 10.410156 -21.953125 12.515625 -21.953125 C 14.628906 -21.953125 16.484375 -21.519531 18.078125 -20.65625 C 19.671875 -19.789062 20.910156 -18.515625 21.796875 -16.828125 C 22.679688 -15.148438 23.125 -13.128906 23.125 -10.765625 C 23.125 -8.390625 22.679688 -6.363281 21.796875 -4.6875 C 20.910156 -3.019531 19.671875 -1.753906 18.078125 -0.890625 C 16.484375 -0.0234375 14.628906 0.40625 12.515625 0.40625 Z M 12.515625 -4.1875 C 15.867188 -4.1875 17.546875 -6.378906 17.546875 -10.765625 C 17.546875 -13.046875 17.113281 -14.710938 16.25 -15.765625 C 15.394531 -16.828125 14.148438 -17.359375 12.515625 -17.359375 C 9.171875 -17.359375 7.5 -15.160156 7.5 -10.765625 C 7.5 -6.378906 9.171875 -4.1875 12.515625 -4.1875 Z M 12.515625 -4.1875 "/></g></g></g><g fill="#000000" fill-opacity="1"><g transform="translate(269.246002, 302.38709)"><g><path d="M 3.109375 0 L 3.109375 -21.546875 L 8.296875 -21.546875 L 8.296875 -18.65625 L 8.71875 -18.578125 C 9.414062 -19.734375 10.234375 -20.582031 11.171875 -21.125 C 12.117188 -21.675781 13.332031 -21.953125 14.8125 -21.953125 C 16.4375 -21.953125 17.742188 -21.628906 18.734375 -20.984375 C 19.722656 -20.335938 20.445312 -19.398438 20.90625 -18.171875 L 21.3125 -18.171875 C 21.976562 -19.453125 22.832031 -20.398438 23.875 -21.015625 C 24.925781 -21.640625 26.234375 -21.953125 27.796875 -21.953125 C 32.265625 -21.953125 34.5 -19.46875 34.5 -14.5 L 34.5 0 L 29.078125 0 L 29.078125 -13.8125 C 29.078125 -15.070312 28.828125 -15.984375 28.328125 -16.546875 C 27.835938 -17.109375 27.046875 -17.390625 25.953125 -17.390625 C 22.984375 -17.390625 21.5 -15.398438 21.5 -11.421875 L 21.5 0 L 16.09375 0 L 16.09375 -13.8125 C 16.09375 -15.070312 15.84375 -15.984375 15.34375 -16.546875 C 14.84375 -17.109375 14.046875 -17.390625 12.953125 -17.390625 C 11.554688 -17.390625 10.46875 -16.921875 9.6875 -15.984375 C 8.90625 -15.054688 8.515625 -13.578125 8.515625 -11.546875 L 8.515625 0 Z M 3.109375 0 "/></g></g></g></svg>